<svg xmlns:xlink="http://www.w3.org/1999/xlink" xmlns="http://www.w3.org/2000/svg" class="railroad-diagram" width="761" style="max-height: 312px;" viewBox="0 0 761 312" height="312" ><g transform="translate(.5 .5)"><g><path d="M20 81v20m0 -10h20" stroke="#000000" fill-opacity="0" fill="#000000" stroke-width="3px"></path></g><path d="M40 91h10" stroke="#000000" fill-opacity="0" fill="#000000" stroke-width="3px"></path><g><path d="M50 91h0" stroke="#000000" fill-opacity="0" fill="#000000" stroke-width="3px"></path><path d="M711 91h0" stroke="#000000" fill-opacity="0" fill="#000000" stroke-width="3px"></path><path d="M50 91h10" stroke="#000000" fill-opacity="0" fill="#000000" stroke-width="3px"></path><g><path d="M60 91h0" stroke="#000000" fill-opacity="0" fill="#000000" stroke-width="3px"></path><path d="M701 91h0" stroke="#000000" fill-opacity="0" fill="#000000" stroke-width="3px"></path><rect x="60" y="42" width="641" height="220" rx="10" ry="10" class="group-box" stroke="#808080" fill="none" stroke-width="3px"></rect><g><path d="M60 91h0" stroke="#000000" fill-opacity="0" fill="#000000" stroke-width="3px"></path><path d="M701 91h0" stroke="#000000" fill-opacity="0" fill="#000000" stroke-width="3px"></path><path d="M60 91h20" stroke="#000000" fill-opacity="0" fill="#000000" stroke-width="3px"></path><g><path d="M80 91h141" stroke="#000000" fill-opacity="0" fill="#000000" stroke-width="3px"></path><path d="M540 91h141" stroke="#000000" fill-opacity="0" fill="#000000" stroke-width="3px"></path><rect x="221" y="72" width="319" height="38" rx="10" ry="10" class="group-box" stroke="#808080" fill="none" stroke-width="3px"></rect><g><path d="M221 91h10" stroke="#000000" fill-opacity="0" fill="#000000" stroke-width="3px"></path><path d="M530 91h10" stroke="#000000" fill-opacity="0" fill="#000000" stroke-width="3px"></path><g class="non-terminal"><path d="M231 91h0" stroke="#000000" fill-opacity="0" fill="#000000" stroke-width="3px"></path><path d="M276.5 91h0" stroke="#000000" fill-opacity="0" fill="#000000" stroke-width="3px"></path><rect x="231" y="80" width="45.5" height="22" stroke="#000000" fill="#FEFFDF" stroke-width="3px"></rect><a xlink:href="#key"><text x="253.75" y="95">key</text></a></g><path d="M276.5 91h10" stroke="#000000" fill-opacity="0" fill="#000000" stroke-width="3px"></path><path d="M286.5 91h10" stroke="#000000" fill-opacity="0" fill="#000000" stroke-width="3px"></path><g class="terminal"><path d="M296.5 91h0" stroke="#000000" fill-opacity="0" fill="#000000" stroke-width="3px"></path><path d="M325 91h0" stroke="#000000" fill-opacity="0" fill="#000000" stroke-width="3px"></path><rect x="296.5" y="80" width="28.5" height="22" rx="10" ry="10" stroke="#000000" fill="#FEFFDF" stroke-width="3px"></rect><text x="310.75" y="95">$</text></g><path d="M325 91h10" stroke="#000000" fill-opacity="0" fill="#000000" stroke-width="3px"></path><path d="M335 91h10" stroke="#000000" fill-opacity="0" fill="#000000" stroke-width="3px"></path><g class="non-terminal"><path d="M345 91h0" stroke="#000000" fill-opacity="0" fill="#000000" stroke-width="3px"></path><path d="M399 91h0" stroke="#000000" fill-opacity="0" fill="#000000" stroke-width="3px"></path><rect x="345" y="80" width="54" height="22" stroke="#000000" fill="#FEFFDF" stroke-width="3px"></rect><a xlink:href="#type"><text x="372" y="95">type</text></a></g><path d="M399 91h10" stroke="#000000" fill-opacity="0" fill="#000000" stroke-width="3px"></path><path d="M409 91h10" stroke="#000000" fill-opacity="0" fill="#000000" stroke-width="3px"></path><g class="terminal"><path d="M419 91h0" stroke="#000000" fill-opacity="0" fill="#000000" stroke-width="3px"></path><path d="M447.5 91h0" stroke="#000000" fill-opacity="0" fill="#000000" stroke-width="3px"></path><rect x="419" y="80" width="28.5" height="22" rx="10" ry="10" stroke="#000000" fill="#FEFFDF" stroke-width="3px"></rect><text x="433.25" y="95">:</text></g><path d="M447.5 91h10" stroke="#000000" fill-opacity="0" fill="#000000" stroke-width="3px"></path><path d="M457.5 91h10" stroke="#000000" fill-opacity="0" fill="#000000" stroke-width="3px"></path><g class="non-terminal"><path d="M467.5 91h0" stroke="#000000" fill-opacity="0" fill="#000000" stroke-width="3px"></path><path d="M530 91h0" stroke="#000000" fill-opacity="0" fill="#000000" stroke-width="3px"></path><rect x="467.5" y="80" width="62.5" height="22" stroke="#000000" fill="#FEFFDF" stroke-width="3px"></rect><a xlink:href="#value"><text x="498.75" y="95">value</text></a></g></g><g><path d="M221 61h0" stroke="#000000" fill-opacity="0" fill="#000000" stroke-width="3px"></path><path d="M322 61h0" stroke="#000000" fill-opacity="0" fill="#000000" stroke-width="3px"></path><a xlink:href="#value_segment"><text x="271.5" y="66" class="comment">value_segment</text></a></g></g><path d="M681 91h20" stroke="#000000" fill-opacity="0" fill="#000000" stroke-width="3px"></path><path d="M60 91a10 10 0 0 1 10 10v78a10 10 0 0 0 10 10" stroke="#000000" fill-opacity="0" fill="#000000" stroke-width="3px"></path><g><path d="M80 189h0" stroke="#000000" fill-opacity="0" fill="#000000" stroke-width="3px"></path><path d="M681 189h0" stroke="#000000" fill-opacity="0" fill="#000000" stroke-width="3px"></path><rect x="80" y="140" width="601" height="114" rx="10" ry="10" class="group-box" stroke="#808080" fill="none" stroke-width="3px"></rect><g><path d="M80 189h10" stroke="#000000" fill-opacity="0" fill="#000000" stroke-width="3px"></path><path d="M671 189h10" stroke="#000000" fill-opacity="0" fill="#000000" stroke-width="3px"></path><g class="non-terminal"><path d="M90 189h0" stroke="#000000" fill-opacity="0" fill="#000000" stroke-width="3px"></path><path d="M186.5 189h0" stroke="#000000" fill-opacity="0" fill="#000000" stroke-width="3px"></path><rect x="90" y="178" width="96.5" height="22" stroke="#000000" fill="#FEFFDF" stroke-width="3px"></rect><a xlink:href="#table_key"><text x="138.25" y="193">table_key</text></a></g><path d="M186.5 189h10" stroke="#000000" fill-opacity="0" fill="#000000" stroke-width="3px"></path><path d="M196.5 189h10" stroke="#000000" fill-opacity="0" fill="#000000" stroke-width="3px"></path><g class="terminal"><path d="M206.5 189h0" stroke="#000000" fill-opacity="0" fill="#000000" stroke-width="3px"></path><path d="M243.5 189h0" stroke="#000000" fill-opacity="0" fill="#000000" stroke-width="3px"></path><rect x="206.5" y="178" width="37" height="22" rx="10" ry="10" stroke="#000000" fill="#FEFFDF" stroke-width="3px"></rect><text x="225" y="193">$$</text></g><path d="M243.5 189h10" stroke="#000000" fill-opacity="0" fill="#000000" stroke-width="3px"></path><path d="M253.5 189h10" stroke="#000000" fill-opacity="0" fill="#000000" stroke-width="3px"></path><g><path d="M263.5 189h0" stroke="#000000" fill-opacity="0" fill="#000000" stroke-width="3px"></path><path d="M471.5 189h0" stroke="#000000" fill-opacity="0" fill="#000000" stroke-width="3px"></path><rect x="263.5" y="170" width="208" height="47" rx="10" ry="10" class="group-box" stroke="#808080" fill="none" stroke-width="3px"></rect><g><path d="M263.5 189h10" stroke="#000000" fill-opacity="0" fill="#000000" stroke-width="3px"></path><path d="M461.5 189h10" stroke="#000000" fill-opacity="0" fill="#000000" stroke-width="3px"></path><path d="M273.5 189h10" stroke="#000000" fill-opacity="0" fill="#000000" stroke-width="3px"></path><g><path d="M283.5 189h0" stroke="#000000" fill-opacity="0" fill="#000000" stroke-width="3px"></path><path d="M451.5 189h0" stroke="#000000" fill-opacity="0" fill="#000000" stroke-width="3px"></path><g class="non-terminal"><path d="M283.5 189h0" stroke="#000000" fill-opacity="0" fill="#000000" stroke-width="3px"></path><path d="M329 189h0" stroke="#000000" fill-opacity="0" fill="#000000" stroke-width="3px"></path><rect x="283.5" y="178" width="45.5" height="22" stroke="#000000" fill="#FEFFDF" stroke-width="3px"></rect><a xlink:href="#key"><text x="306.25" y="193">key</text></a></g><path d="M329 189h10" stroke="#000000" fill-opacity="0" fill="#000000" stroke-width="3px"></path><path d="M339 189h10" stroke="#000000" fill-opacity="0" fill="#000000" stroke-width="3px"></path><g class="terminal"><path d="M349 189h0" stroke="#000000" fill-opacity="0" fill="#000000" stroke-width="3px"></path><path d="M377.5 189h0" stroke="#000000" fill-opacity="0" fill="#000000" stroke-width="3px"></path><rect x="349" y="178" width="28.5" height="22" rx="10" ry="10" stroke="#000000" fill="#FEFFDF" stroke-width="3px"></rect><text x="363.25" y="193">$</text></g><path d="M377.5 189h10" stroke="#000000" fill-opacity="0" fill="#000000" stroke-width="3px"></path><path d="M387.5 189h10" stroke="#000000" fill-opacity="0" fill="#000000" stroke-width="3px"></path><g class="non-terminal"><path d="M397.5 189h0" stroke="#000000" fill-opacity="0" fill="#000000" stroke-width="3px"></path><path d="M451.5 189h0" stroke="#000000" fill-opacity="0" fill="#000000" stroke-width="3px"></path><rect x="397.5" y="178" width="54" height="22" stroke="#000000" fill="#FEFFDF" stroke-width="3px"></rect><a xlink:href="#type"><text x="424.5" y="193">type</text></a></g></g><path d="M451.5 189h10" stroke="#000000" fill-opacity="0" fill="#000000" stroke-width="3px"></path><path d="M283.5 189a10 10 0 0 0 -10 10v0a10 10 0 0 0 10 10" stroke="#000000" fill-opacity="0" fill="#000000" stroke-width="3px"></path><g><path d="M283.5 209h168" stroke="#000000" fill-opacity="0" fill="#000000" stroke-width="3px"></path></g><path d="M451.5 209a10 10 0 0 0 10 -10v0a10 10 0 0 0 -10 -10" stroke="#000000" fill-opacity="0" fill="#000000" stroke-width="3px"></path></g><g><path d="M263.5 159h0" stroke="#000000" fill-opacity="0" fill="#000000" stroke-width="3px"></path><path d="M357.5 159h0" stroke="#000000" fill-opacity="0" fill="#000000" stroke-width="3px"></path><a xlink:href="#table_header"><text x="310.5" y="164" class="comment">table_header</text></a></g></g><path d="M471.5 189h10" stroke="#000000" fill-opacity="0" fill="#000000" stroke-width="3px"></path><path d="M481.5 189h10" stroke="#000000" fill-opacity="0" fill="#000000" stroke-width="3px"></path><g><path d="M491.5 189h0" stroke="#000000" fill-opacity="0" fill="#000000" stroke-width="3px"></path><path d="M671 189h0" stroke="#000000" fill-opacity="0" fill="#000000" stroke-width="3px"></path><path d="M491.5 189h10" stroke="#000000" fill-opacity="0" fill="#000000" stroke-width="3px"></path><g><path d="M501.5 189h0" stroke="#000000" fill-opacity="0" fill="#000000" stroke-width="3px"></path><path d="M661 189h0" stroke="#000000" fill-opacity="0" fill="#000000" stroke-width="3px"></path><g class="terminal"><path d="M501.5 189h0" stroke="#000000" fill-opacity="0" fill="#000000" stroke-width="3px"></path><path d="M538.5 189h0" stroke="#000000" fill-opacity="0" fill="#000000" stroke-width="3px"></path><rect x="501.5" y="178" width="37" height="22" rx="10" ry="10" stroke="#000000" fill="#FEFFDF" stroke-width="3px"></rect><text x="520" y="193">::</text></g><path d="M538.5 189h10" stroke="#000000" fill-opacity="0" fill="#000000" stroke-width="3px"></path><path d="M548.5 189h10" stroke="#000000" fill-opacity="0" fill="#000000" stroke-width="3px"></path><g><path d="M558.5 189h0" stroke="#000000" fill-opacity="0" fill="#000000" stroke-width="3px"></path><path d="M661 189h0" stroke="#000000" fill-opacity="0" fill="#000000" stroke-width="3px"></path><rect x="558.5" y="170" width="102.5" height="68" rx="10" ry="10" class="group-box" stroke="#808080" fill="none" stroke-width="3px"></rect><g><path d="M558.5 189h10" stroke="#000000" fill-opacity="0" fill="#000000" stroke-width="3px"></path><path d="M651 189h10" stroke="#000000" fill-opacity="0" fill="#000000" stroke-width="3px"></path><path d="M568.5 189h10" stroke="#000000" fill-opacity="0" fill="#000000" stroke-width="3px"></path><g class="non-terminal"><path d="M578.5 189h0" stroke="#000000" fill-opacity="0" fill="#000000" stroke-width="3px"></path><path d="M641 189h0" stroke="#000000" fill-opacity="0" fill="#000000" stroke-width="3px"></path><rect x="578.5" y="178" width="62.5" height="22" stroke="#000000" fill="#FEFFDF" stroke-width="3px"></rect><a xlink:href="#value"><text x="609.75" y="193">value</text></a></g><path d="M641 189h10" stroke="#000000" fill-opacity="0" fill="#000000" stroke-width="3px"></path><path d="M578.5 189a10 10 0 0 0 -10 10v10a10 10 0 0 0 10 10" stroke="#000000" fill-opacity="0" fill="#000000" stroke-width="3px"></path><g class="terminal"><path d="M578.5 219h17" stroke="#000000" fill-opacity="0" fill="#000000" stroke-width="3px"></path><path d="M624 219h17" stroke="#000000" fill-opacity="0" fill="#000000" stroke-width="3px"></path><rect x="595.5" y="208" width="28.5" height="22" rx="10" ry="10" stroke="#000000" fill="#FEFFDF" stroke-width="3px"></rect><text x="609.75" y="223">:</text></g><path d="M641 219a10 10 0 0 0 10 -10v-10a10 10 0 0 0 -10 -10" stroke="#000000" fill-opacity="0" fill="#000000" stroke-width="3px"></path></g><g><path d="M558.5 159h0" stroke="#000000" fill-opacity="0" fill="#000000" stroke-width="3px"></path><path d="M631.5 159h0" stroke="#000000" fill-opacity="0" fill="#000000" stroke-width="3px"></path><a xlink:href="#table_row"><text x="595" y="164" class="comment">table_row</text></a></g></g></g><path d="M661 189h10" stroke="#000000" fill-opacity="0" fill="#000000" stroke-width="3px"></path><path d="M501.5 189a10 10 0 0 0 -10 10v37a10 10 0 0 0 10 10" stroke="#000000" fill-opacity="0" fill="#000000" stroke-width="3px"></path><g><path d="M501.5 246h159.5" stroke="#000000" fill-opacity="0" fill="#000000" stroke-width="3px"></path></g><path d="M661 246a10 10 0 0 0 10 -10v-37a10 10 0 0 0 -10 -10" stroke="#000000" fill-opacity="0" fill="#000000" stroke-width="3px"></path></g></g><g><path d="M80 129h0" stroke="#000000" fill-opacity="0" fill="#000000" stroke-width="3px"></path><path d="M181 129h0" stroke="#000000" fill-opacity="0" fill="#000000" stroke-width="3px"></path><a xlink:href="#table_segment"><text x="130.5" y="134" class="comment">table_segment</text></a></g></g><path d="M681 189a10 10 0 0 0 10 -10v-78a10 10 0 0 1 10 -10" stroke="#000000" fill-opacity="0" fill="#000000" stroke-width="3px"></path></g><g><path d="M60 31h0" stroke="#000000" fill-opacity="0" fill="#000000" stroke-width="3px"></path><path d="M119 31h0" stroke="#000000" fill-opacity="0" fill="#000000" stroke-width="3px"></path><a xlink:href="#segment"><text x="89.5" y="36" class="comment">segment</text></a></g></g><path d="M701 91h10" stroke="#000000" fill-opacity="0" fill="#000000" stroke-width="3px"></path><path d="M60 91a10 10 0 0 0 -10 10v170a10 10 0 0 0 10 10" stroke="#000000" fill-opacity="0" fill="#000000" stroke-width="3px"></path><g class="terminal"><path d="M60 281h306.25" stroke="#000000" fill-opacity="0" fill="#000000" stroke-width="3px"></path><path d="M394.75 281h306.25" stroke="#000000" fill-opacity="0" fill="#000000" stroke-width="3px"></path><rect x="366.25" y="270" width="28.5" height="22" rx="10" ry="10" stroke="#000000" fill="#FEFFDF" stroke-width="3px"></rect><text x="380.5" y="285">+</text></g><path d="M701 281a10 10 0 0 0 10 -10v-170a10 10 0 0 0 -10 -10" stroke="#000000" fill-opacity="0" fill="#000000" stroke-width="3px"></path></g><path d="M711 91h10" stroke="#000000" fill-opacity="0" fill="#000000" stroke-width="3px"></path><path d="M 721 91 h 20 m 0 -10 v 20" stroke="#000000" fill-opacity="0" fill="#000000" stroke-width="3px"></path></g></svg>